<svg width="72" height="72" viewBox="0 0 72 72" fill="none" xmlns="http://www.w3.org/2000/svg">
<path d="M42.75 63.81C34.3305 63.81 26.5005 60.0818 21.1883 53.5635C20.511 53.6445 19.8225 53.685 19.125 53.685C9.3735 53.685 1.44 45.7515 1.44 36C1.44 26.2485 9.3735 18.315 19.125 18.315C19.8225 18.315 20.511 18.3555 21.1883 18.4343C26.5005 11.9183 34.3328 8.19 42.75 8.19C52.9785 8.19 61.9335 13.7408 66.7665 21.987C66.8183 22.0545 66.8633 22.1288 66.8948 22.2098C69.2258 26.2755 70.5623 30.9848 70.5623 35.9978C70.5623 41.0107 69.2258 45.72 66.8948 49.788C66.8633 49.869 66.8205 49.9433 66.7665 50.0108C61.9335 58.2615 52.9785 63.81 42.75 63.81ZM43.56 50.31V62.136C47.6618 61.6005 51.2438 57.0195 53.3723 50.31H43.56ZM32.1503 50.31C34.344 57.132 38.016 61.5893 41.94 62.1338V50.31H32.1503ZM23.04 53.2485C26.757 57.501 31.6575 60.3855 37.0688 61.5758C34.3328 59.31 32.0085 55.4153 30.4515 50.31H29.5065C27.6008 51.696 25.4093 52.7108 23.04 53.2485ZM55.0823 50.31C53.568 55.305 51.2708 59.2493 48.4943 61.5533C55.2353 60.039 61.002 55.917 64.674 50.31H55.0823ZM6.37875 45.7695C9.31725 49.5945 13.9388 52.065 19.125 52.065C27.9833 52.065 35.19 44.8583 35.19 36C35.19 32.0783 33.7793 28.4805 31.4348 25.6883L24.669 32.445C24.3518 32.76 23.841 32.76 23.5238 32.445L18.0855 27.0135L14.256 38.4908C14.1458 38.8215 13.8353 39.0443 13.4888 39.0443H9.747L6.37875 45.7695ZM55.5368 48.69H65.655C67.626 45.1508 68.796 41.1098 68.9288 36.81H57.0555C56.9948 41.1053 56.4548 45.1305 55.5368 48.69ZM43.56 48.69H53.847C54.801 45.1508 55.3703 41.1098 55.4333 36.81H43.56V48.69ZM31.671 48.69H41.94V36.81H36.792C36.585 41.3663 34.6455 45.4793 31.6193 48.5055C31.6373 48.5663 31.653 48.627 31.671 48.69ZM19.125 19.935C10.2668 19.935 3.06 27.1418 3.06 36C3.06 39.0083 3.8925 41.8253 5.33475 44.235L8.523 37.8743C8.66025 37.5998 8.9415 37.4265 9.2475 37.4265H12.906L16.965 25.2608C17.0528 24.993 17.2733 24.7928 17.5455 24.7275C17.8245 24.6623 18.1058 24.7455 18.3038 24.9435L24.0953 30.7283L30.33 24.5003C27.4365 21.6765 23.481 19.935 19.125 19.935ZM57.0533 35.19H68.9265C68.7938 30.8903 67.6238 26.8493 65.6528 23.31H55.5345C56.4548 26.8717 56.9948 30.8948 57.0533 35.19ZM43.56 35.19H55.4333C55.3703 30.8903 54.801 26.8493 53.847 23.31H43.56V35.19ZM36.792 35.19H41.94V23.31H31.671C31.6553 23.3708 31.6373 23.4338 31.6215 23.4968C31.7453 23.6205 31.8668 23.7465 31.986 23.8725C32.0085 23.8905 32.031 23.9108 32.0513 23.931C32.085 23.967 32.1165 24.003 32.1435 24.0413C34.8683 27.0068 36.5985 30.9015 36.792 35.19ZM55.0823 21.69H64.6763C61.002 16.0808 55.2375 11.9588 48.4965 10.4445C51.2708 12.7508 53.5703 16.695 55.0823 21.69ZM43.56 21.69H53.3723C51.2438 14.9805 47.6618 10.3973 43.56 9.86175V21.69ZM32.1503 21.69H41.94V9.86625C38.016 10.4085 34.344 14.8658 32.1503 21.69ZM29.5065 21.69H30.4515C32.0108 16.5848 34.335 12.69 37.0688 10.4243C31.6575 11.6145 26.757 14.499 23.04 18.7515C25.4093 19.2893 27.6008 20.304 29.5065 21.69Z" fill="#8A8D9F"/>
</svg>
