<svg width="72" height="72" viewBox="0 0 72 72" fill="none" xmlns="http://www.w3.org/2000/svg">
<path d="M69.75 70.56H2.25C1.80225 70.56 1.44 70.1977 1.44 69.75V2.25H3.06V17.19H11.25V18.81H3.06V54.2947L35.4285 21.9285C35.7458 21.6112 36.2565 21.6112 36.5737 21.9285L51.75 37.1047L69.1762 19.6785L70.3237 20.8237L52.3237 38.8237C52.0065 39.141 51.4935 39.141 51.1763 38.8237L36 23.6452L3.06 56.5852V68.9377H69.75V70.56ZM20.25 18.81H18V17.19H19.9147L24.1785 12.9262L25.3237 14.0715L20.8237 18.5715C20.6707 18.7245 20.466 18.81 20.25 18.81ZM29.8215 9.5715L28.6762 8.42625L30.9262 6.17625C31.0792 6.0255 31.284 5.94 31.5 5.94H38.25V7.56H31.8352L29.8215 9.5715ZM69.75 7.56H60.75V5.94H69.75V7.56ZM54 7.56H45V5.94H54V7.56ZM19.125 33.75C19.125 33.129 18.621 32.625 18 32.625C17.379 32.625 16.875 33.129 16.875 33.75C16.875 34.371 17.379 34.875 18 34.875C18.621 34.875 19.125 34.371 19.125 33.75ZM10.125 33.75C10.125 33.129 9.621 32.625 9 32.625C8.379 32.625 7.875 33.129 7.875 33.75C7.875 34.371 8.379 34.875 9 34.875C9.621 34.875 10.125 34.371 10.125 33.75ZM25.875 40.5C25.875 39.879 25.371 39.375 24.75 39.375C24.129 39.375 23.625 39.879 23.625 40.5C23.625 41.121 24.129 41.625 24.75 41.625C25.371 41.625 25.875 41.121 25.875 40.5ZM32.625 47.25C32.625 46.629 32.121 46.125 31.5 46.125C30.879 46.125 30.375 46.629 30.375 47.25C30.375 47.871 30.879 48.375 31.5 48.375C32.121 48.375 32.625 47.871 32.625 47.25ZM39.375 54C39.375 53.379 38.871 52.875 38.25 52.875C37.629 52.875 37.125 53.379 37.125 54C37.125 54.621 37.629 55.125 38.25 55.125C38.871 55.125 39.375 54.621 39.375 54ZM46.125 60.75C46.125 60.129 45.621 59.625 45 59.625C44.379 59.625 43.875 60.129 43.875 60.75C43.875 61.371 44.379 61.875 45 61.875C45.621 61.875 46.125 61.371 46.125 60.75ZM52.875 54C52.875 53.379 52.371 52.875 51.75 52.875C51.129 52.875 50.625 53.379 50.625 54C50.625 54.621 51.129 55.125 51.75 55.125C52.371 55.125 52.875 54.621 52.875 54ZM59.625 47.25C59.625 46.629 59.121 46.125 58.5 46.125C57.879 46.125 57.375 46.629 57.375 47.25C57.375 47.871 57.879 48.375 58.5 48.375C59.121 48.375 59.625 47.871 59.625 47.25ZM68.625 47.25C68.625 46.629 68.121 46.125 67.5 46.125C66.879 46.125 66.375 46.629 66.375 47.25C66.375 47.871 66.879 48.375 67.5 48.375C68.121 48.375 68.625 47.871 68.625 47.25Z" fill="#8A8D9F"/>
</svg>
