<svg width="72" height="72" viewBox="0 0 72 72" fill="none" xmlns="http://www.w3.org/2000/svg">
<path d="M58.5 70.56H13.5C13.14 70.56 12.825 70.3237 12.7237 69.9772L1.47374 31.7272C1.38374 31.4235 1.48049 31.095 1.71899 30.8857L35.469 1.63573C35.775 1.37248 36.225 1.37248 36.531 1.63573L70.281 30.8857C70.5217 31.0927 70.6162 31.4212 70.5285 31.7272L59.2785 69.9772C59.1772 70.3237 58.86 70.56 58.5 70.56ZM15.1447 68.94H56.8552L44.4487 52.812L20.988 61.344L15.1447 68.94ZM45.8527 51.9817L58.1737 67.995L68.5665 32.6542L59.2672 35.1337C59.238 35.2215 59.193 35.3047 59.1322 35.3812L45.8527 51.9817ZM3.43349 32.6542L13.8285 67.995L19.44 60.7005V36.9225L3.43349 32.6542ZM36 41.8297L22.8285 58.95L43.4115 51.4642L36 41.8297ZM21.06 37.3545V58.5945L34.6162 40.9702L21.06 37.3545ZM37.3837 40.9702L44.8357 50.6587L56.709 35.8155L37.3837 40.9702ZM36.81 13.275V39.4447L56.6865 34.146L36.81 13.275ZM21.3637 35.7592L35.19 39.447V14.031L21.3637 35.7592ZM3.93524 31.1107L19.7212 35.3205L35.19 11.0137V4.02523L3.93524 31.1107ZM36.81 10.926L58.4707 33.669L68.0647 31.1107L36.81 4.02523V10.926Z" fill="#8A8D9F"/>
</svg>
