<svg width="72" height="72" viewBox="0 0 72 72" fill="none" xmlns="http://www.w3.org/2000/svg">
<g opacity="0.8">
<path d="M69.75 35.19H37.629L45.99 24.156C46.377 24.3315 46.8 24.435 47.25 24.435C47.9228 24.435 48.5393 24.21 49.0455 23.841L53.4375 28.0485C53.28 28.4175 53.19 28.8225 53.19 29.25C53.19 30.9375 54.5625 32.31 56.25 32.31C57.9375 32.31 59.31 30.9375 59.31 29.25C59.31 28.5885 59.094 27.981 58.7363 27.4793L66.2085 18.513C66.6023 18.6975 67.0365 18.81 67.5 18.81C69.1875 18.81 70.56 17.4375 70.56 15.75C70.56 14.0625 69.1875 12.69 67.5 12.69C65.8125 12.69 64.44 14.0625 64.44 15.75C64.44 16.3868 64.6358 16.9785 64.971 17.469L57.483 26.4533C57.105 26.2868 56.6888 26.19 56.25 26.19C55.5773 26.19 54.9608 26.415 54.4568 26.7818L50.0648 22.5743C50.2223 22.2053 50.3123 21.8003 50.3123 21.375C50.3123 19.6875 48.9398 18.315 47.2523 18.315C45.5648 18.315 44.1923 19.6875 44.1923 21.375C44.1923 22.0253 44.3993 22.626 44.7458 23.121L36.8123 33.5903V3.096C44.1045 3.276 51.0818 5.859 56.727 10.44H51.732V12.06H59.3145V4.5H57.69V9.13725C51.5565 4.1805 43.9313 1.44 36 1.44C16.9425 1.44 1.44 16.9425 1.44 36C1.44 36.4478 1.80225 36.81 2.25 36.81H35.19V68.9017C27.9023 68.7217 20.9205 66.141 15.2753 61.56H20.2725V59.94H12.69V67.5H14.31V62.8605C20.4435 67.8173 28.0733 70.56 36 70.56C55.0575 70.56 70.56 55.0553 70.56 36C70.56 35.5522 70.1978 35.19 69.75 35.19ZM36.81 53.685H49.5293C46.809 62.3993 42.1515 68.3033 36.81 68.8545V53.685ZM36.81 52.065V36.81H52.0448C51.9795 42.3383 51.2528 47.529 50.0108 52.065H36.81ZM67.5 14.31C68.2943 14.31 68.94 14.9558 68.94 15.75C68.94 16.5443 68.2943 17.19 67.5 17.19C66.7058 17.19 66.06 16.5443 66.06 15.75C66.06 14.9558 66.7058 14.31 67.5 14.31ZM56.25 27.81C57.0443 27.81 57.69 28.4558 57.69 29.25C57.69 30.0443 57.0443 30.69 56.25 30.69C55.4558 30.69 54.81 30.0443 54.81 29.25C54.81 28.4558 55.4558 27.81 56.25 27.81ZM47.25 19.935C48.0443 19.935 48.69 20.5808 48.69 21.375C48.69 22.1693 48.0443 22.815 47.25 22.815C46.4558 22.815 45.81 22.1693 45.81 21.375C45.81 20.5808 46.4558 19.935 47.25 19.935ZM35.19 18.315H22.4685C25.1888 9.5985 29.8463 3.6945 35.19 3.14325V18.315ZM29.7923 3.681C26.0258 6.453 22.8758 11.6528 20.835 18.315H8.2575C13.0478 10.8293 20.763 5.4135 29.7923 3.681ZM7.25625 19.935H20.3535C19.1182 24.5138 18.4005 29.6955 18.3353 35.19H3.069C3.204 29.6618 4.7115 24.471 7.25625 19.935ZM19.9553 35.19C20.0205 29.6618 20.7473 24.4688 21.9893 19.935H35.1923V35.19H19.9553ZM42.21 68.319C45.9743 65.547 49.1243 60.3473 51.1673 53.685H63.7425C58.9523 61.1708 51.2393 66.5865 42.21 68.319ZM64.7438 52.065H51.6465C52.8818 47.4863 53.5995 42.3068 53.6648 36.81H68.931C68.796 42.3383 67.2885 47.529 64.7438 52.065ZM32.31 54V40.5C32.31 40.0523 31.9478 39.69 31.5 39.69H4.5C4.05225 39.69 3.69 40.0523 3.69 40.5V54C3.69 54.4478 4.05225 54.81 4.5 54.81H31.5C31.9478 54.81 32.31 54.4478 32.31 54ZM26.2733 53.19H9.72675C9.3735 50.913 7.58475 49.1243 5.30775 48.771V45.729C7.58475 45.3758 9.3735 43.587 9.72675 41.31H26.271C26.6243 43.587 28.413 45.3758 30.69 45.729V48.771C28.4153 49.1243 26.6243 50.913 26.2733 53.19ZM30.69 44.0933C29.3063 43.7805 28.2173 42.6938 27.9068 41.31H30.69V44.0933ZM8.09325 41.31C7.7805 42.6938 6.6915 43.7805 5.31 44.0933V41.31H8.09325ZM5.31 50.4068C6.69375 50.7195 7.78275 51.8063 8.09325 53.19H5.31V50.4068ZM27.9068 53.19C28.2195 51.8063 29.3085 50.7195 30.69 50.4068V53.19H27.9068ZM18 44.19C16.3125 44.19 14.94 45.5625 14.94 47.25C14.94 48.9375 16.3125 50.31 18 50.31C19.6875 50.31 21.06 48.9375 21.06 47.25C21.06 45.5625 19.6875 44.19 18 44.19ZM18 48.69C17.2058 48.69 16.56 48.0443 16.56 47.25C16.56 46.4558 17.2058 45.81 18 45.81C18.7943 45.81 19.44 46.4558 19.44 47.25C19.44 48.0443 18.7943 48.69 18 48.69ZM9 46.44H11.25V48.0623H9V46.44ZM24.75 46.44H27V48.0623H24.75V46.44Z" fill="#8A8D9F"/>
</g>
</svg>
