<svg width="72" height="72" viewBox="0 0 72 72" fill="none" xmlns="http://www.w3.org/2000/svg">
<path d="M69.75 70.56H56.25C55.8022 70.56 55.44 70.1978 55.44 69.75V63.81H47.25C46.8022 63.81 46.44 63.4478 46.44 63V36.81H39.06V54C39.06 54.4478 38.6978 54.81 38.25 54.81H2.25C1.80225 54.81 1.44 54.4478 1.44 54V42.7523C1.44 42.75 1.44 42.75 1.44 42.7478V18C1.44 17.5523 1.80225 17.19 2.25 17.19H38.25C38.6978 17.19 39.06 17.5523 39.06 18V35.19H46.4377V9C46.4377 8.55225 46.8 8.19 47.2477 8.19H58.6327L62.298 1.845C62.4442 1.593 62.7097 1.44 63 1.44C63.2902 1.44 63.5557 1.593 63.702 1.845L71.496 15.345C71.64 15.5948 71.64 15.9053 71.496 16.155C71.352 16.4048 71.0843 16.56 70.794 16.56H55.2037C54.9135 16.56 54.648 16.407 54.5017 16.155C54.3577 15.903 54.3577 15.5948 54.5017 15.345L57.6967 9.81H48.06V35.19H55.4827C55.8877 31.401 59.103 28.44 63 28.44C67.1693 28.44 70.56 31.8308 70.56 36C70.56 40.1693 67.167 43.56 63 43.56C59.1052 43.56 55.8877 40.599 55.4827 36.81H48.06V62.19H55.4377V56.25C55.4377 55.8023 55.8 55.44 56.2477 55.44H69.7477C70.1955 55.44 70.5577 55.8023 70.5577 56.25V69.75C70.56 70.1978 70.1977 70.56 69.75 70.56ZM57.06 68.94H68.9377V57.06H57.06V68.94ZM3.06 53.19H37.44V47.5875L29.25 39.3953L25.3215 43.3238C25.0042 43.641 24.4935 43.641 24.1762 43.3238L13.5 32.6453L3.06 43.0853V53.19ZM29.25 37.44C29.457 37.44 29.664 37.5188 29.8215 37.6763L37.44 45.2925V18.81H3.06V40.7948L12.9285 30.9285C13.2458 30.6113 13.7565 30.6113 14.0738 30.9285L24.75 41.6048L28.6785 37.6763C28.836 37.5188 29.043 37.44 29.25 37.44ZM63 30.06C59.724 30.06 57.06 32.7263 57.06 36C57.06 39.276 59.724 41.94 63 41.94C66.276 41.94 68.94 39.276 68.94 36C68.94 32.724 66.276 30.06 63 30.06ZM56.6077 14.94H69.3922L63 3.87L59.8117 9.39375C59.8072 9.40275 59.8005 9.4095 59.796 9.4185L56.6077 14.94ZM25.875 32.3078C23.5687 32.3078 21.69 30.4313 21.69 28.1228C21.69 25.8143 23.5665 23.9378 25.875 23.9378C28.1835 23.9378 30.06 25.8143 30.06 28.1228C30.06 30.4313 28.1812 32.3078 25.875 32.3078ZM25.875 25.5578C24.462 25.5578 23.31 26.7098 23.31 28.1228C23.31 29.5358 24.462 30.6878 25.875 30.6878C27.288 30.6878 28.44 29.5358 28.44 28.1228C28.44 26.7098 27.288 25.5578 25.875 25.5578Z" fill="#8A8D9F"/>
</svg>
