<svg width="72" height="72" viewBox="0 0 72 72" fill="none" xmlns="http://www.w3.org/2000/svg">
<path d="M68.31 69.75H66.69V34.56H18.81V47.25C18.81 47.6978 18.4478 48.06 18 48.06H5.31V69.75H3.69V47.25C3.69 47.034 3.7755 46.827 3.92625 46.6763L17.4263 33.1762C17.5793 33.0255 17.784 32.94 18 32.94H67.5C67.9478 32.94 68.31 33.3022 68.31 33.75V69.75ZM6.45525 46.44H17.19V35.7052L6.45525 46.44ZM60.75 68.31H56.25C55.8023 68.31 55.44 67.9477 55.44 67.5V63C55.44 62.5522 55.8023 62.19 56.25 62.19H60.75C61.1978 62.19 61.56 62.5522 61.56 63V67.5C61.56 67.9477 61.1978 68.31 60.75 68.31ZM57.06 66.69H59.9378V63.81H57.06V66.69ZM49.5 68.31H45C44.5523 68.31 44.19 67.9477 44.19 67.5V63C44.19 62.5522 44.5523 62.19 45 62.19H49.5C49.9478 62.19 50.31 62.5522 50.31 63V67.5C50.31 67.9477 49.9478 68.31 49.5 68.31ZM45.81 66.69H48.6878V63.81H45.81V66.69ZM38.25 68.31H33.75C33.3023 68.31 32.94 67.9477 32.94 67.5V63C32.94 62.5522 33.3023 62.19 33.75 62.19H38.25C38.6978 62.19 39.06 62.5522 39.06 63V67.5C39.06 67.9477 38.6978 68.31 38.25 68.31ZM34.56 66.69H37.44V63.81H34.56V66.69ZM27 68.31H22.5C22.0523 68.31 21.69 67.9477 21.69 67.5V63C21.69 62.5522 22.0523 62.19 22.5 62.19H27C27.4478 62.19 27.81 62.5522 27.81 63V67.5C27.81 67.9477 27.4478 68.31 27 68.31ZM23.31 66.69H26.19V63.81H23.31V66.69ZM15.75 68.31H11.25C10.8023 68.31 10.44 67.9477 10.44 67.5V63C10.44 62.5522 10.8023 62.19 11.25 62.19H15.75C16.1978 62.19 16.56 62.5522 16.56 63V67.5C16.56 67.9477 16.1978 68.31 15.75 68.31ZM12.06 66.69H14.94V63.81H12.06V66.69ZM60.75 59.31H56.25C55.8023 59.31 55.44 58.9477 55.44 58.5V54C55.44 53.5522 55.8023 53.19 56.25 53.19H60.75C61.1978 53.19 61.56 53.5522 61.56 54V58.5C61.56 58.9477 61.1978 59.31 60.75 59.31ZM57.06 57.69H59.9378V54.81H57.06V57.69ZM38.25 59.31H33.75C33.3023 59.31 32.94 58.9477 32.94 58.5V54C32.94 53.5522 33.3023 53.19 33.75 53.19H38.25C38.6978 53.19 39.06 53.5522 39.06 54V58.5C39.06 58.9477 38.6978 59.31 38.25 59.31ZM34.56 57.69H37.44V54.81H34.56V57.69ZM15.75 59.31H11.25C10.8023 59.31 10.44 58.9477 10.44 58.5V54C10.44 53.5522 10.8023 53.19 11.25 53.19H15.75C16.1978 53.19 16.56 53.5522 16.56 54V58.5C16.56 58.9477 16.1978 59.31 15.75 59.31ZM12.06 57.69H14.94V54.81H12.06V57.69ZM38.25 48.06H33.75C33.3023 48.06 32.94 47.6978 32.94 47.25V42.75C32.94 42.3022 33.3023 41.94 33.75 41.94H38.25C38.6978 41.94 39.06 42.3022 39.06 42.75V47.25C39.06 47.6978 38.6978 48.06 38.25 48.06ZM34.56 46.44H37.44V43.56H34.56V46.44ZM49.5 30.06H45C44.5523 30.06 44.19 29.6977 44.19 29.25V24.75C44.19 24.3022 44.5523 23.94 45 23.94H49.5C49.9478 23.94 50.31 24.3022 50.31 24.75V29.25C50.31 29.6977 49.9478 30.06 49.5 30.06ZM45.81 28.44H48.6878V25.56H45.81V28.44ZM27 30.06H22.5C22.0523 30.06 21.69 29.6977 21.69 29.25V24.75C21.69 24.3022 22.0523 23.94 22.5 23.94H27C27.4478 23.94 27.81 24.3022 27.81 24.75V29.25C27.81 29.6977 27.4478 30.06 27 30.06ZM23.31 28.44H26.19V25.56H23.31V28.44ZM60.75 18.81H56.25C55.8023 18.81 55.44 18.4478 55.44 18V13.5C55.44 13.0523 55.8023 12.69 56.25 12.69H60.75C61.1978 12.69 61.56 13.0523 61.56 13.5V18C61.56 18.4478 61.1978 18.81 60.75 18.81ZM57.06 17.19H59.9378V14.31H57.06V17.19ZM38.25 18.81H33.75C33.3023 18.81 32.94 18.4478 32.94 18V13.5C32.94 13.0523 33.3023 12.69 33.75 12.69H38.25C38.6978 12.69 39.06 13.0523 39.06 13.5V18C39.06 18.4478 38.6978 18.81 38.25 18.81ZM34.56 17.19H37.44V14.31H34.56V17.19ZM49.5 7.56H45C44.5523 7.56 44.19 7.19775 44.19 6.75V2.25C44.19 1.80225 44.5523 1.44 45 1.44H49.5C49.9478 1.44 50.31 1.80225 50.31 2.25V6.75C50.31 7.19775 49.9478 7.56 49.5 7.56ZM45.81 5.94H48.6878V3.06H45.81V5.94ZM27 7.56H22.5C22.0523 7.56 21.69 7.19775 21.69 6.75V2.25C21.69 1.80225 22.0523 1.44 22.5 1.44H27C27.4478 1.44 27.81 1.80225 27.81 2.25V6.75C27.81 7.19775 27.4478 7.56 27 7.56ZM23.31 5.94H26.19V3.06H23.31V5.94Z" fill="#8A8D9F"/>
</svg>
