<svg width="200" height="48" viewBox="0 0 200 48" fill="none" xmlns="http://www.w3.org/2000/svg">
<path d="M71.6665 28.3186C70.829 29.3087 69.8415 30.0668 68.7038 30.5928C67.5662 31.1034 66.2942 31.3587 64.8879 31.3587C63.6239 31.3587 62.4467 31.1343 61.3565 30.6857C60.282 30.237 59.3498 29.6259 58.5597 28.8523C57.7697 28.0788 57.1456 27.166 56.6873 26.1139C56.2291 25.0464 56 23.9015 56 22.6793C56 21.4571 56.2291 20.32 56.6873 19.2679C57.1456 18.2004 57.7697 17.2799 58.5597 16.5063C59.3498 15.7328 60.282 15.1217 61.3565 14.673C62.4467 14.2243 63.6239 14 64.8879 14C66.2468 14 67.4398 14.2321 68.4668 14.6962C69.5097 15.1603 70.434 15.8333 71.2399 16.7152L68.9883 18.8502C68.4826 18.2778 67.898 17.8214 67.2344 17.481C66.5865 17.1406 65.8123 16.9705 64.9116 16.9705C64.1216 16.9705 63.379 17.1097 62.6837 17.3882C61.9885 17.6512 61.3802 18.0302 60.8587 18.5253C60.3531 19.0204 59.9502 19.6238 59.65 20.3354C59.3498 21.0316 59.1997 21.8129 59.1997 22.6793C59.1997 23.5457 59.3498 24.3347 59.65 25.0464C59.9502 25.7426 60.3531 26.3383 60.8587 26.8333C61.3802 27.3284 61.9885 27.7152 62.6837 27.9937C63.379 28.2567 64.1216 28.3882 64.9116 28.3882C65.8597 28.3882 66.6971 28.2025 67.424 27.8312C68.1666 27.4444 68.8223 26.903 69.3912 26.2068L71.6665 28.3186Z" fill="white"/>
<path d="M73.6244 19.616H76.5397V21.1941H76.7293C76.8715 20.9156 77.0611 20.6603 77.2981 20.4283C77.5351 20.1962 77.7958 19.9951 78.0803 19.8249C78.3805 19.6547 78.6965 19.5232 79.0283 19.4304C79.3759 19.3376 79.7156 19.2911 80.0475 19.2911C80.4583 19.2911 80.8059 19.3298 81.0903 19.4072C81.3905 19.4845 81.6433 19.5851 81.8487 19.7089L81.0192 22.4705C80.8296 22.3776 80.6163 22.308 80.3793 22.2616C80.1581 22.1997 79.8815 22.1688 79.5497 22.1688C79.1231 22.1688 78.736 22.2539 78.3884 22.4241C78.0408 22.5788 77.7405 22.8031 77.4877 23.097C77.2507 23.391 77.0611 23.7391 76.9189 24.1414C76.7925 24.5281 76.7293 24.9536 76.7293 25.4177V30.9873H73.6244V19.616Z" fill="white"/>
<path d="M87.1576 30.4304L82.2752 19.616H85.8067L88.7456 26.5084H88.9115L91.732 19.616H95.1923L87.9161 36H84.5742L87.1576 30.4304Z" fill="white"/>
<path d="M96.5133 19.616H99.4286V20.9852H99.6182C99.9026 20.5056 100.345 20.0956 100.945 19.7553C101.546 19.4149 102.288 19.2447 103.173 19.2447C103.916 19.2447 104.619 19.3994 105.283 19.7089C105.962 20.0028 106.555 20.4205 107.06 20.962C107.582 21.488 107.993 22.1224 108.293 22.865C108.593 23.6076 108.743 24.4198 108.743 25.3017C108.743 26.1835 108.593 26.9958 108.293 27.7384C107.993 28.481 107.582 29.1231 107.06 29.6646C106.555 30.1906 105.962 30.6083 105.283 30.9177C104.619 31.2117 103.916 31.3587 103.173 31.3587C102.288 31.3587 101.546 31.1885 100.945 30.8481C100.345 30.5077 99.9026 30.0977 99.6182 29.6181H99.4286L99.6182 31.2426V36H96.5133V19.616ZM102.533 28.5506C102.944 28.5506 103.331 28.4733 103.695 28.3186C104.074 28.1639 104.406 27.9473 104.69 27.6688C104.975 27.3903 105.204 27.0499 105.378 26.6477C105.551 26.2454 105.638 25.7968 105.638 25.3017C105.638 24.8066 105.551 24.3579 105.378 23.9557C105.204 23.5534 104.975 23.2131 104.69 22.9346C104.406 22.6561 104.074 22.4395 103.695 22.2848C103.331 22.1301 102.944 22.0527 102.533 22.0527C102.123 22.0527 101.728 22.1301 101.348 22.2848C100.985 22.4241 100.661 22.6329 100.377 22.9114C100.092 23.1899 99.8631 23.5302 99.6893 23.9325C99.5155 24.3347 99.4286 24.7911 99.4286 25.3017C99.4286 25.8122 99.5155 26.2686 99.6893 26.6709C99.8631 27.0731 100.092 27.4135 100.377 27.692C100.661 27.9705 100.985 28.1871 101.348 28.3418C101.728 28.481 102.123 28.5506 102.533 28.5506Z" fill="white"/>
<path d="M111.544 22.2152H109.506V19.616H111.544V16.135H114.649V19.616H117.493V22.2152H114.649V26.6245C114.649 26.8875 114.672 27.135 114.72 27.3671C114.783 27.5837 114.894 27.7693 115.052 27.9241C115.273 28.1716 115.589 28.2954 116 28.2954C116.268 28.2954 116.482 28.2722 116.64 28.2257C116.798 28.1639 116.948 28.0865 117.09 27.9937L117.967 30.6624C117.604 30.8326 117.209 30.9564 116.782 31.0338C116.371 31.1266 115.913 31.173 115.407 31.173C114.823 31.173 114.293 31.0879 113.819 30.9177C113.361 30.7321 112.974 30.4845 112.658 30.1751C111.915 29.4789 111.544 28.4887 111.544 27.2046V22.2152Z" fill="white"/>
<path d="M125.16 19.2447C126.061 19.2447 126.882 19.3994 127.625 19.7089C128.383 20.0028 129.031 20.4205 129.568 20.962C130.121 21.488 130.548 22.1224 130.848 22.865C131.164 23.6076 131.322 24.4198 131.322 25.3017C131.322 26.1835 131.164 26.9958 130.848 27.7384C130.548 28.481 130.121 29.1231 129.568 29.6646C129.031 30.1906 128.383 30.6083 127.625 30.9177C126.882 31.2117 126.061 31.3587 125.16 31.3587C124.259 31.3587 123.43 31.2117 122.671 30.9177C121.929 30.6083 121.281 30.1906 120.728 29.6646C120.191 29.1231 119.764 28.481 119.448 27.7384C119.148 26.9958 118.998 26.1835 118.998 25.3017C118.998 24.4198 119.148 23.6076 119.448 22.865C119.764 22.1224 120.191 21.488 120.728 20.962C121.281 20.4205 121.929 20.0028 122.671 19.7089C123.43 19.3994 124.259 19.2447 125.16 19.2447ZM125.16 28.5506C125.555 28.5506 125.934 28.481 126.298 28.3418C126.677 28.1871 127.009 27.9705 127.293 27.692C127.577 27.4135 127.799 27.0731 127.957 26.6709C128.13 26.2686 128.217 25.8122 128.217 25.3017C128.217 24.7911 128.13 24.3347 127.957 23.9325C127.799 23.5302 127.577 23.1899 127.293 22.9114C127.009 22.6329 126.677 22.4241 126.298 22.2848C125.934 22.1301 125.555 22.0527 125.16 22.0527C124.749 22.0527 124.362 22.1301 123.999 22.2848C123.635 22.4241 123.311 22.6329 123.027 22.9114C122.742 23.1899 122.513 23.5302 122.339 23.9325C122.181 24.3347 122.102 24.7911 122.102 25.3017C122.102 25.8122 122.181 26.2686 122.339 26.6709C122.513 27.0731 122.742 27.4135 123.027 27.692C123.311 27.9705 123.635 28.1871 123.999 28.3418C124.362 28.481 124.749 28.5506 125.16 28.5506Z" fill="white"/>
<path d="M137.939 22.308L132.796 14.3713H136.754L140.048 19.8017H140.238L143.532 14.3713H147.491L142.347 22.308L147.917 30.9873H143.935L140.238 25H140.048L136.351 30.9873H132.369L137.939 22.308Z" fill="white"/>
<path d="M156.793 29.7806H156.603C156.24 30.2138 155.797 30.5851 155.276 30.8945C154.77 31.2039 154.114 31.3587 153.309 31.3587C152.708 31.3587 152.139 31.2581 151.602 31.057C151.081 30.8713 150.622 30.6083 150.227 30.2679C149.832 29.9276 149.524 29.5176 149.303 29.038C149.082 28.5584 148.971 28.0323 148.971 27.4599C148.971 26.872 149.09 26.346 149.327 25.8819C149.564 25.4023 149.896 24.9923 150.322 24.6519C150.749 24.3115 151.247 24.0563 151.815 23.8861C152.4 23.7004 153.032 23.6076 153.712 23.6076C154.47 23.6076 155.094 23.6695 155.584 23.7933C156.074 23.9015 156.477 24.0176 156.793 24.1414V23.7933C156.793 23.1899 156.548 22.6948 156.058 22.308C155.568 21.9058 154.96 21.7046 154.233 21.7046C153.158 21.7046 152.25 22.1456 151.507 23.0274L149.256 21.519C150.488 20.0028 152.171 19.2447 154.304 19.2447C156.105 19.2447 157.48 19.6624 158.428 20.4979C159.376 21.3179 159.85 22.5401 159.85 24.1646V30.9873H156.793V29.7806ZM156.793 26.3692C156.429 26.199 156.05 26.0675 155.655 25.9747C155.276 25.8664 154.857 25.8122 154.399 25.8122C153.656 25.8122 153.079 25.9747 152.669 26.2996C152.274 26.609 152.076 26.9958 152.076 27.4599C152.076 27.9241 152.266 28.2954 152.645 28.5738C153.04 28.8523 153.49 28.9916 153.996 28.9916C154.407 28.9916 154.786 28.9219 155.134 28.7827C155.481 28.628 155.774 28.4346 156.011 28.2025C156.263 27.955 156.453 27.6765 156.579 27.3671C156.722 27.0422 156.793 26.7096 156.793 26.3692Z" fill="white"/>
<path d="M165.234 21.1013H165.424C165.787 20.5288 166.277 20.0802 166.893 19.7553C167.509 19.4149 168.212 19.2447 169.002 19.2447C169.729 19.2447 170.369 19.3608 170.922 19.5928C171.475 19.8249 171.926 20.1575 172.273 20.5907C172.637 21.0084 172.905 21.519 173.079 22.1224C173.269 22.7103 173.364 23.3678 173.364 24.0949V30.9873H170.259V24.4662C170.259 23.6463 170.069 23.0429 169.69 22.6561C169.326 22.2539 168.789 22.0527 168.078 22.0527C167.652 22.0527 167.272 22.1456 166.94 22.3312C166.624 22.5014 166.348 22.7412 166.111 23.0506C165.89 23.3446 165.716 23.7004 165.59 24.1181C165.479 24.5204 165.424 24.9536 165.424 25.4177V30.9873H162.319V19.616H165.234V21.1013Z" fill="white"/>
<path d="M176.606 22.2152H174.568V19.616H176.606V16.135H179.711V19.616H182.556V22.2152H179.711V26.6245C179.711 26.8875 179.735 27.135 179.782 27.3671C179.846 27.5837 179.956 27.7693 180.114 27.9241C180.335 28.1716 180.652 28.2954 181.062 28.2954C181.331 28.2954 181.544 28.2722 181.702 28.2257C181.86 28.1639 182.01 28.0865 182.153 27.9937L183.03 30.6624C182.666 30.8326 182.271 30.9564 181.844 31.0338C181.434 31.1266 180.975 31.173 180.47 31.173C179.885 31.173 179.356 31.0879 178.882 30.9177C178.424 30.7321 178.036 30.4845 177.72 30.1751C176.978 29.4789 176.606 28.4887 176.606 27.2046V22.2152Z" fill="white"/>
<path d="M184.955 14.3713H188.06V19.0359L187.87 21.1013H188.06C188.392 20.5598 188.866 20.1188 189.482 19.7785C190.114 19.4226 190.817 19.2447 191.592 19.2447C193.093 19.2447 194.199 19.6779 194.91 20.5443C195.637 21.4107 196 22.5942 196 24.0949V30.9873H192.895V24.4662C192.895 23.6772 192.706 23.0816 192.326 22.6793C191.947 22.2616 191.418 22.0527 190.738 22.0527C190.312 22.0527 189.932 22.1456 189.601 22.3312C189.269 22.5014 188.984 22.7412 188.747 23.0506C188.526 23.3601 188.352 23.7236 188.226 24.1414C188.115 24.5436 188.06 24.9768 188.06 25.4409V30.9873H184.955V14.3713Z" fill="white"/>
<path fill-rule="evenodd" clip-rule="evenodd" d="M21.8323 0.0648607C17.1397 0.545737 13.0512 2.12033 9.52925 4.80311C9.04741 5.17017 8.55955 5.54912 8.44513 5.64525L8.23709 5.82005L11.9965 9.58153L15.7559 13.343L16.4512 12.8752C17.599 12.1028 18.9791 11.4623 20.3087 11.0847C24.0341 10.0267 28.1646 10.6884 31.386 12.8595L32.0998 13.3406L33.3494 12.0942L34.5989 10.848L34.3481 10.6327C33.8307 10.1888 32.5388 9.37448 31.5824 8.88957C29.1237 7.64293 26.7254 7.07446 23.9241 7.07446C21.4286 7.07446 19.3376 7.5051 17.1585 8.46777L16.2937 8.84977L14.9967 7.55199L13.6999 6.2542L14.2017 5.97328C17.2861 4.24722 21.4805 3.32183 25.1225 3.56394C26.9776 3.68721 28.9219 4.05382 30.3348 4.54666L30.7623 4.69577L32.1168 3.33883L33.4712 1.98189L33.2509 1.86845C32.474 1.46808 29.9424 0.697669 28.4599 0.410348C26.6857 0.0664616 23.4586 -0.101708 21.8323 0.0648607ZM35.4318 4.97661C34.6741 5.73582 34.2073 6.2587 34.2519 6.29796C34.2925 6.33379 34.5657 6.51087 34.859 6.69155C35.1523 6.87222 35.7806 7.31223 36.2552 7.66931L37.1182 8.31858L38.3311 7.10663C38.9982 6.44005 39.5441 5.85924 39.5441 5.81601C39.5441 5.67445 36.9395 3.72022 36.7508 3.72022C36.715 3.72022 36.1214 4.28556 35.4318 4.97661ZM5.14678 9.05865C4.53437 9.83333 3.7613 10.9134 3.6836 11.103C3.65777 11.1659 4.12414 11.6891 4.88952 12.4561C5.5759 13.144 6.15974 13.7067 6.18686 13.7067C6.21398 13.7067 6.37396 13.4746 6.54239 13.1909C6.71075 12.9073 7.16478 12.2514 7.55124 11.7336L8.25385 10.792L7.00396 9.5412L5.75408 8.29045L5.14678 9.05865ZM38.3355 12.0564L34.5749 15.8211L35.0544 16.5347C38.083 21.0421 38.0806 26.971 35.0484 31.4766L34.5769 32.1772L35.834 33.4351L37.0911 34.6931L37.584 34.0261C39.7129 31.1451 40.8378 27.7002 40.8387 24.0592C40.8394 21.4796 40.3567 19.1702 39.3707 17.0366L39.06 16.3643L40.3593 15.064L41.6586 13.7638L42.0071 14.4035C42.8514 15.9534 43.5906 18.0248 43.9622 19.8816C44.2784 21.4614 44.3668 22.3848 44.3637 24.0744C44.3599 26.1871 44.1053 27.9623 43.5356 29.8482C43.3933 30.3194 43.2769 30.7485 43.2769 30.8018C43.2769 30.8552 43.8734 31.4951 44.6025 32.2238L45.9281 33.5487L46.0415 33.3283C46.4416 32.5508 47.2115 30.0172 47.4986 28.534C47.6601 27.6995 47.8476 26.2045 47.8476 25.7521C47.8476 25.547 47.8819 25.3581 47.9238 25.3322C47.9701 25.3035 48 24.7328 48 23.8748C48 22.954 47.9736 22.4808 47.9238 22.5116C47.8774 22.5403 47.8476 22.4248 47.8476 22.2151C47.8476 21.262 47.4188 18.8446 46.9777 17.3109C46.0742 14.1698 44.3975 11.0223 42.3059 8.54072L42.0961 8.29175L38.3355 12.0564ZM10.4266 13.7558C9.79199 14.5819 9.28776 15.4153 8.72662 16.5654C7.52526 19.0277 7.01532 21.2425 7.01532 23.9981C7.01532 26.5139 7.50736 28.8469 8.4836 30.9593L8.79411 31.6312L7.50477 32.9233C6.3377 34.093 6.20598 34.2027 6.11571 34.081C6.06094 34.007 5.7988 33.5006 5.53324 32.9555C3.68299 29.158 3.05481 24.8263 3.74774 20.6439C3.91328 19.6449 4.23674 18.3109 4.48927 17.586L4.63828 17.1583L3.27748 15.7981L1.91668 14.4379L1.72517 14.8712C1.03399 16.4351 0.390194 18.8854 0.12227 20.9718C-0.0556092 22.3575 -0.0356501 25.9315 0.157694 27.2933C0.769722 31.6049 2.37407 35.375 5.07548 38.8503L5.74662 39.7136L9.51142 35.9462L13.2763 32.1788L12.7698 31.4236C10.2438 27.6578 9.82528 22.7799 11.6698 18.6028C12.0842 17.6644 12.3 17.2749 12.8905 16.3991L13.28 15.8216L12.0247 14.5655L10.7695 13.3094L10.4266 13.7558ZM22.7727 14.1694C19.0305 14.633 15.8798 17.1534 14.6059 20.7023C13.8822 22.7186 13.8822 25.2777 14.6059 27.294C15.1044 28.6825 15.8835 29.9039 16.9546 30.9756C18.3747 32.3965 19.9938 33.2731 21.9668 33.6893C23.0718 33.9223 24.7963 33.923 25.8876 33.6908C27.741 33.2964 29.3608 32.4558 30.7042 31.1912C31.2792 30.6498 32.2308 29.4896 32.2308 29.3297C32.2308 29.2867 31.2983 29.2582 29.8924 29.2582H27.554L26.9023 29.5941C25.7842 30.1704 25.2886 30.2873 23.9653 30.2873C22.6031 30.2873 22.1845 30.1943 21.061 29.6413C19.8166 29.0288 18.8268 28.0145 18.2098 26.7192C17.7387 25.7303 17.6424 25.2683 17.6424 23.9981C17.6424 22.6665 17.7407 22.2356 18.3 21.1151C19.0874 19.5374 20.5854 18.3209 22.3274 17.8444C23.0217 17.6545 24.8312 17.6543 25.527 17.8439C27.238 18.3105 28.9528 19.6567 29.6636 21.0914L29.9835 21.7371L30.0063 23.6299L30.0291 25.5228H31.8439H33.6587L33.7034 25.2369C33.8921 24.0304 33.7999 22.3807 33.4817 21.2726C32.6403 18.3424 30.1599 15.7268 27.2208 14.6704C25.9748 14.2225 24.0728 14.0083 22.7727 14.1694ZM41.2597 34.8804C41.0599 35.2053 40.6045 35.8608 40.2477 36.3369L39.5991 37.2028L40.8505 38.455L42.1019 39.7073L42.6407 39.0338C43.2423 38.282 44.191 36.9345 44.191 36.8319C44.191 36.7587 41.741 34.2896 41.6682 34.2896C41.6433 34.2896 41.4595 34.5555 41.2597 34.8804ZM14.4914 35.9181L13.2465 37.1655L13.6923 37.5084C14.442 38.0851 15.2833 38.6056 16.2953 39.1186C18.7295 40.3527 21.1392 40.9218 23.9303 40.9218C26.4413 40.9218 28.7735 40.429 30.8839 39.4524L31.5557 39.1415L32.8543 40.4409L34.1529 41.7404L33.4395 42.1247C31.3411 43.2549 28.6613 44.0746 26.1364 44.3584C25.0998 44.475 22.738 44.4755 21.718 44.3595C20.5883 44.2309 18.8507 43.8703 17.897 43.5663L17.0851 43.3075L15.7342 44.661L14.3833 46.0144L14.6035 46.1278C15.0461 46.3558 16.7855 46.9495 17.7729 47.2094C21.202 48.1122 25.0455 48.2476 28.4599 47.5859C32.2441 46.8527 35.9561 45.1401 38.8774 42.7797L39.62 42.1797L35.8604 38.4174L32.1008 34.6552L31.4006 35.127C26.8996 38.1604 20.9594 38.1635 16.4653 35.1348C16.0866 34.8795 15.7677 34.6707 15.7565 34.6707C15.7453 34.6707 15.176 35.232 14.4914 35.9181ZM9.46762 40.9454L8.22688 42.1886L8.89711 42.7243C9.64831 43.3246 11.0004 44.2761 11.1024 44.2761C11.1771 44.2761 13.6429 41.8236 13.6429 41.7492C13.6429 41.723 13.3945 41.5522 13.0906 41.3696C12.7868 41.187 12.1382 40.7371 11.649 40.3698C11.1599 40.0026 10.7482 39.7021 10.734 39.7021C10.7199 39.7021 10.15 40.2616 9.46762 40.9454Z" fill="#FFD315"/>
</svg>
